<?xml version="1.0" standalone="no"?><!DOCTYPE svg PUBLIC "-//W3C//DTD SVG 1.1//EN" "http://www.w3.org/Graphics/SVG/1.1/DTD/svg11.dtd"><svg t="1745996394199" class="icon" viewBox="0 0 1112 1024" version="1.1" xmlns="http://www.w3.org/2000/svg" p-id="1072" xmlns:xlink="http://www.w3.org/1999/xlink" width="217.1875" height="200"><path d="M1111.761677 880.816633c-3.66918-167.246365-102.865047-310.387067-244.427149-375.408358a283.422857 283.422857 0 0 0 107.51552-222.96671C974.850048 126.458731 850.396567 0.042665 696.888296 0.042665a273.055289 273.055289 0 0 0-138.31957 37.502437A273.055289 273.055289 0 0 0 420.334486 0.042665C266.740886 0.042665 142.287405 126.458731 142.287405 282.441565c0 90.449565 41.939586 170.95821 107.088871 222.625391C108.667472 569.362943 9.642265 710.839715 4.351819 876.422149c-0.853298 3.541186-0.938628 15.402025-0.938628 15.402025 0 25.897588-21.332444 132.175826 42.664889 132.175826 49.533936 0 42.664889-85.329778 49.533936-132.175826 0.426649-171.811508 131.279863-314.098913 296.862298-328.434315a276.297821 276.297821 0 0 0 55.635015 0c162.766551 14.079413 291.145202 150.436398 295.75301 318.365401-0.213324 1.877255 0.042665 10.068914 0.042665 10.068914 0 25.897588-19.1992 132.175826 48.808633 132.175826 43.390192 0 43.390192-106.278238 43.390192-132.175826 0 0-0.639973-8.959627-0.981292-11.178201a423.705012 423.705012 0 0 0-151.247032-316.232157c4.309154 0.213324 32.510645-0.17066 40.830299-1.023957 17.065956-1.706596 33.577268-5.034457 49.576601-9.727595 108.838132 48.040665 243.403192 153.252281 245.963085 331.250198 0 25.897588-14.207408 139.087538 49.789925 139.087538 42.664889 0 42.664889-106.278238 42.664889-132.175826 0 0-0.639973-8.831632-0.938627-11.007541zM419.609183 476.097496c-105.126286 0-190.32807-86.652389-190.32807-193.570601 0-106.875547 85.201783-193.527936 190.32807-193.527937 105.126286 0 190.32807 86.609725 190.32807 193.527937s-85.201783 193.570601-190.285405 193.570601z m354.758552-24.148327z m8.106329-4.09583a54.611058 54.611058 0 0 0-8.106329 4.09583c-18.004583 8.575643-37.630432 14.292738-58.280239 16.553977l-18.217907 1.066622c-20.820466 0-42.622224-3.413191-61.266781-9.898254a283.892171 283.892171 0 0 0 61.6081-177.229949 283.934836 283.934836 0 0 0-62.376068-178.253906 181.752427 181.752427 0 0 1 60.242823-10.239574c102.097079 0 184.909629 84.092496 184.909629 187.853507a189.133453 189.133453 0 0 1-98.555893 166.051747z" fill="#626262" p-id="1073"></path></svg>