<?xml version="1.0" standalone="no"?><!DOCTYPE svg PUBLIC "-//W3C//DTD SVG 1.1//EN" "http://www.w3.org/Graphics/SVG/1.1/DTD/svg11.dtd"><svg t="1745996412008" class="icon" viewBox="0 0 1024 1024" version="1.1" xmlns="http://www.w3.org/2000/svg" p-id="1396" xmlns:xlink="http://www.w3.org/1999/xlink" width="200" height="200"><path d="M772.681143 41.252571A186.294857 186.294857 0 0 0 730.843429 36.571429H306.102857a186.075429 186.075429 0 0 0-68.608 13.019428 179.638857 179.638857 0 0 0-56.539428 35.84A170.020571 170.020571 0 0 0 142.336 139.337143 162.450286 162.450286 0 0 0 128 206.116571v611.766858a160.914286 160.914286 0 0 0 14.336 66.779428c9.142857 20.333714 22.052571 38.290286 38.656 53.906286a177.042286 177.042286 0 0 0 56.539429 35.84A183.625143 183.625143 0 0 0 306.102857 987.428571h424.704a186.185143 186.185143 0 0 0 68.608-13.019428 179.565714 179.565714 0 0 0 56.539429-35.84 168.045714 168.045714 0 0 0 38.619428-53.906286 160.914286 160.914286 0 0 0 14.372572-66.779428V206.116571a162.121143 162.121143 0 0 0-25.819429-87.990857 170.459429 170.459429 0 0 0-27.172571-32.694857 177.590857 177.590857 0 0 0-56.539429-35.84 183.734857 183.734857 0 0 0-26.770286-8.338286zM306.139429 109.714286h424.704c14.518857 0 28.379429 2.633143 41.581714 7.862857a106.422857 106.422857 0 0 1 33.462857 21.174857 97.024 97.024 0 0 1 22.052571 30.610286c5.266286 11.702857 7.899429 23.954286 7.899429 36.754285v611.766858c0 12.8-2.633143 25.051429-7.899429 36.754285a95.670857 95.670857 0 0 1-22.052571 30.610286c-9.654857 9.106286-20.845714 16.164571-33.462857 21.174857-13.165714 5.229714-27.062857 7.862857-41.581714 7.862857H306.102857a113.042286 113.042286 0 0 1-41.618286-7.862857 105.106286 105.106286 0 0 1-33.462857-21.174857 95.634286 95.634286 0 0 1-22.016-30.610286 88.502857 88.502857 0 0 1-7.899428-36.754285V206.116571a89.380571 89.380571 0 0 1 12.397714-45.458285c4.644571-8.009143 10.496-15.286857 17.554286-21.942857a104.338286 104.338286 0 0 1 33.426285-21.138286A111.36 111.36 0 0 1 306.139429 109.714286z m42.459428 166.217143h353.938286c20.48 0 36.571429 16.091429 36.571428 36.571428s-16.091429 36.571429-36.571428 36.571429H348.598857c-20.48 0-36.571429-16.091429-36.571428-36.571429s16.091429-36.571429 36.571428-36.571428z m0 133.010285h325.632c20.48 0 36.571429 16.091429 36.571429 36.571429s-16.091429 36.571429-36.571429 36.571428H348.598857c-20.48 0-36.571429-16.091429-36.571428-36.571428s16.091429-36.571429 36.571428-36.571429z m0 132.973715h297.325714c20.48 0 36.571429 16.091429 36.571429 36.571428s-16.091429 36.571429-36.571429 36.571429h-297.325714c-20.48 0-36.571429-16.091429-36.571428-36.571429s16.091429-36.571429 36.571428-36.571428z m0 132.973714h240.64c20.48 0 36.571429 16.091429 36.571429 36.571428s-16.091429 36.571429-36.571429 36.571429h-240.64c-20.48 0-36.571429-16.091429-36.571428-36.571429s16.091429-36.571429 36.571428-36.571428z" fill="#626262" p-id="1397"></path></svg>