<?xml version="1.0" standalone="no"?><!DOCTYPE svg PUBLIC "-//W3C//DTD SVG 1.1//EN" "http://www.w3.org/Graphics/SVG/1.1/DTD/svg11.dtd"><svg t="1745996404654" class="icon" viewBox="0 0 1024 1024" version="1.1" xmlns="http://www.w3.org/2000/svg" p-id="1234" xmlns:xlink="http://www.w3.org/1999/xlink" width="200" height="200"><path d="M310.857143 109.714286h402.285714c30.281143 0 54.857143-16.384 54.857143-36.571429s-24.576-36.571429-54.857143-36.571428h-402.285714C280.539429 36.571429 256 52.955429 256 73.142857s24.539429 36.571429 54.857143 36.571429zM1014.966857 542.976l-56.978286-214.747429A146.212571 146.212571 0 0 0 816.64 219.428571H207.36a146.249143 146.249143 0 0 0-141.385143 108.8L8.704 544.292571a36.571429 36.571429 0 0 0 23.296 43.885715L109.714286 615.314286V804.571429c0 25.234286 4.461714 48.64 13.385143 70.217142 8.923429 21.540571 22.308571 41.216 40.155428 59.062858s37.558857 31.232 59.099429 40.192S267.337143 987.428571 292.571429 987.428571h438.857142c25.234286 0 48.64-4.461714 70.217143-13.385142 21.504-8.923429 41.216-22.308571 59.062857-40.192s31.232-37.522286 40.192-59.062858c8.923429-21.577143 13.385143-44.982857 13.385143-70.217142v-194.048l75.995429-23.222858a36.571429 36.571429 0 0 0 24.685714-44.324571zM841.142857 804.571429c0 36.571429-9.142857 64-27.428571 82.285714S768 914.285714 731.428571 914.285714H292.571429c-36.571429 0-64-9.142857-82.285715-27.428571S182.857143 841.142857 182.857143 804.571429l-3.657143-219.428572 55.552-39.68a36.644571 36.644571 0 0 1 42.532571 0l85.504 61.074286a36.571429 36.571429 0 0 0 42.496 0l85.504-61.074286a36.571429 36.571429 0 0 1 42.496 0l85.467429 61.074286c12.763429 9.069714 29.805714 9.069714 42.532571 0l83.748572-59.830857a36.571429 36.571429 0 0 1 44.690286 1.645714L841.142857 591.213714V804.571429z m52.992-264.374858l-57.636571-48.018285c-21.686857-18.066286-43.702857-27.538286-66.048-28.379429-22.308571-0.804571-44.946286 6.948571-67.949715 23.369143L640 531.821714l-64.219429-45.860571c-21.284571-15.177143-42.532571-22.784-63.780571-22.784s-42.532571 7.606857-63.780571 22.784L384 531.821714l-64.219429-45.860571c-21.284571-15.177143-42.532571-22.784-63.780571-22.784-21.284571 0-42.532571 7.606857-63.780571 22.784L116.333714 540.16l-28.269714-9.874286 48.603429-183.332571c4.827429-18.102857 13.092571-31.707429 24.868571-40.777143C173.312 297.106286 188.598857 292.571429 207.36 292.571429h609.28c18.724571 0 34.011429 4.534857 45.787429 13.604571 11.776 9.069714 20.077714 22.674286 24.905142 40.777143l47.945143 180.699428-41.142857 12.544z" fill="#626262" p-id="1235"></path></svg>